# xmcd
#
# Track frame offsets: 
#        225
#        17984
#        34556
#        59835
#        73726
#        86243
#        100225
#        116560
#        134560
#        147847
#        160824
#        187420
#        203139
#        220691
#
# Disc length: 3109 seconds
#
# Revision: 3
# Processed by: cddbd v1.5.2PL0 Copyright (c) Steve Scherf et al.
# Submitted via: ExactAudioCopy v0.95b4
#
DISCID=dc0c220e
DTITLE=Jessie Mae Hemphill - Feelin' Good
DYEAR=1900
DGENRE=Blues
TTITLE0=Feelin' Good
TTITLE1=Go Back to Your Used to Be
TTITLE2=Streamline Train
TTITLE3=Baby, Please Don't Go
TTITLE4=Tell Me You Love Me
TTITLE5=Shake It, Baby
TTITLE6=Shame on You
TTITLE7=My Daddy's Blues
TTITLE8=Brokenhearted Blues
TTITLE9=Rolling and Tumbling
TTITLE10=Eagle Bird
TTITLE11=Cowgirl Blues
TTITLE12=Merry Christmas, Pretty Baby
TTITLE13=Lord, Help the Poor and Needy
EXTD=
EXTT0=
EXTT1=
EXTT2=
EXTT3=
EXTT4=
EXTT5=
EXTT6=
EXTT7=
EXTT8=
EXTT9=
EXTT10=
EXTT11=
EXTT12=
EXTT13=
PLAYORDER=
